<?xml version="1.0" encoding="utf-8"?>
<!-- Generator: Adobe Illustrator 23.0.1, SVG Export Plug-In . SVG Version: 6.00 Build 0)  -->
<svg version="1.1" id="Layer_1" xmlns="http://www.w3.org/2000/svg" xmlns:xlink="http://www.w3.org/1999/xlink" x="0px" y="0px"
	 viewBox="0 0 157.4 35" style="enable-background:new 0 0 157.4 35;" xml:space="preserve">
<g>
	<polygon points="136.7,0.2 136.7,3.7 144.9,3.7 144.9,34.7 148.9,34.7 148.9,3.7 157.2,3.7 157.2,0.2 	"/>
	<path d="M31.2,0.2L19,31.5H4.1V0.3h-4v34.6h17.5h2.2h2l2.9-7.4H42l3,7.4h4.2L35.4,0.2H31.2z M26.1,23.9l1.4-3.5l5.8-14.9l7.2,18.4
		H26.1z"/>
	<polygon points="71.4,27.3 55.8,0.1 51.6,0.1 51.6,34.9 55.6,34.9 55.6,7.6 71.3,34.9 75.4,34.9 75.4,0.1 71.4,0.1 	"/>
	<path d="M121,0c-10.1,0-18.3,7.8-18.3,17.4s8.2,17.4,18.3,17.4c10.1,0,18.3-7.8,18.3-17.4S131.1,0,121,0z M121,31.3
		c-7.9,0-14.3-6.2-14.3-13.9S113.1,3.4,121,3.4s14.3,6.2,14.3,13.9S128.9,31.3,121,31.3z"/>
	<path d="M91.9,14.8c-5.3-1.4-7.7-2.6-7.8-5.9c0-1.4,0.6-2.7,1.7-3.7c1.2-1.1,2.9-1.7,4.6-1.7c2.6,0,4.9,1.4,5.9,3.5l3.7-1.2
		c-0.5-1.2-1.3-2.2-2.4-3.1c-4.1-3.6-10.8-3.6-14.8,0C81,4.5,79.9,6.7,79.9,9c0.1,6.3,6.4,8.1,10.6,9.2c5,1.4,7.1,3.5,7.1,7.1
		c-0.1,2.9-2.4,5.3-5.6,5.9c-3.9,0.8-7.8-1.3-8.7-4.7l-3.9,0.7c1.1,4.5,5.7,7.7,11,7.7c6.2,0,11.2-4.3,11.4-9.7
		C101.8,20.1,98.6,16.7,91.9,14.8z"/>
</g>
</svg>
