<svg xmlns="http://www.w3.org/2000/svg" viewBox="0 0 79.8 20.1"><defs><style>.cls-1{fill:#fff;}</style></defs><title>Asset 1</title><g id="Layer_2" data-name="Layer 2"><g id="Layer_1-2" data-name="Layer 1"><polygon class="cls-1" points="69.5 0.1 69.5 2.1 73.7 2.1 73.7 19.9 75.7 19.9 75.7 2.1 79.8 2.1 79.8 0.1 69.5 0.1"/><path class="cls-1" d="M16.6.1,10.4,18H2V.1H0V19.9H11.9l1.5-4.3h8.5v-.1L23.5,20h2.1L18.7.1ZM14.1,13.7l.7-2,2.9-8.5,3.6,10.5Z"/><polygon class="cls-1" points="36.8 15.6 29 0 26.9 0 26.9 20 28.9 20 28.9 4.3 36.7 20 38.8 20 38.8 0 36.8 0 36.8 15.6"/><path class="cls-1" d="M61.7,0c-5.1,0-9.2,4.5-9.2,10s4.1,10,9.2,10,9.2-4.5,9.2-10S66.7,0,61.7,0Zm0,17.9c-4,0-7.2-3.6-7.2-8s3.2-8,7.2-8,7.2,3.6,7.2,8S65.6,17.9,61.7,17.9Z"/><path class="cls-1" d="M47.1,8.5c-2.7-.8-3.9-1.5-3.9-3.4A2.72,2.72,0,0,1,44.1,3a3.45,3.45,0,0,1,2.3-1,3.28,3.28,0,0,1,3,2l1.9-.7A5.22,5.22,0,0,0,46.4,0a5.46,5.46,0,0,0-3.8,1.6,5.08,5.08,0,0,0-1.5,3.6c.1,3.6,3.2,4.6,5.3,5.3,2.5.8,3.6,2,3.6,4.1a3.56,3.56,0,0,1-3.6,3.5,3.75,3.75,0,0,1-3.6-2.8l-2,.4a5.57,5.57,0,0,0,5.5,4.4A5.74,5.74,0,0,0,52,14.5C52,11.5,50.4,9.5,47.1,8.5Z"/></g></g></svg>