<?xml version="1.0" encoding="utf-8"?>
<!-- Generator: Adobe Illustrator 23.0.1, SVG Export Plug-In . SVG Version: 6.00 Build 0)  -->
<svg version="1.1" id="Layer_1" xmlns:sketch="http://www.bohemiancoding.com/sketch/ns"
	 xmlns="http://www.w3.org/2000/svg" xmlns:xlink="http://www.w3.org/1999/xlink" x="0px" y="0px" viewBox="0 0 45.4 45.4"
	 style="enable-background:new 0 0 45.4 45.4;" xml:space="preserve">
<style type="text/css">
	.st0{fill-rule:evenodd;clip-rule:evenodd;}
</style>
<title>eye-fill 52</title>
<desc>Created with Sketch.</desc>
<g sketch:type="MSPage">
	<path sketch:type="MSShapeGroup" class="st0" d="M42.1,42.1H30.3V25.5c0-0.9-0.7-1.6-1.6-1.6H16.6c-0.9,0-1.6,0.7-1.6,1.6v16.6H3.2
		V19.3L22.7,3.7l19.5,15.6V42.1z M27.1,42.1h-8.9v-15h8.9V42.1z M44.7,17.2L23.7,0.4c-0.6-0.5-1.4-0.5-2,0L0.6,17.2
		C0.2,17.5,0,18,0,18.5v25.3c0,0.9,0.7,1.6,1.6,1.6h15h12.1h15c0.9,0,1.6-0.7,1.6-1.6V18.5C45.4,18,45.1,17.5,44.7,17.2L44.7,17.2z"
		/>
</g>
</svg>
