<?xml version="1.0" encoding="utf-8"?>
<!-- Generator: Adobe Illustrator 23.0.1, SVG Export Plug-In . SVG Version: 6.00 Build 0)  -->
<svg version="1.1" id="Layer_1" xmlns="http://www.w3.org/2000/svg" xmlns:xlink="http://www.w3.org/1999/xlink" x="0px" y="0px"
	 viewBox="0 0 79.8 20.1" style="enable-background:new 0 0 79.8 20.1;" xml:space="preserve">
<style type="text/css">
	.st0{fill:#FFFFFF;}
</style>
<title>Asset 1</title>
<g>
	<g id="Layer_1-2">
		<path class="st0" d="M16.4,4.7L10.7,14H2.5V4.7H0.4v10.6h11.8l1.5-2.6h7.8l1.5,2.6h2.3L18.9,4.7H16.4z M14.5,11.5l3.1-5.2l3.1,5.2
			H14.5z"/>
		<polygon class="st0" points="36.8,13 27.8,4.7 25.7,4.7 25.7,15.3 27.8,15.3 27.8,7.1 36.8,15.3 38.9,15.3 38.9,4.7 36.8,4.7 		
			"/>
		<path class="st0" d="M51.1,10.9c-0.3-0.2-0.6-0.4-0.9-0.6c-0.3-0.2-0.7-0.3-1-0.4c-0.3-0.1-0.7-0.2-1.1-0.3
			c-0.4-0.1-0.7-0.2-1-0.2c-0.3,0-0.5-0.1-0.8-0.1c-2.5-0.3-3.8-1-3.8-1.8c0-0.5,0.3-0.9,1-1.2c0.8-0.3,1.6-0.5,2.5-0.5
			c0.8,0,1.6,0.1,2.4,0.3c0.6,0.2,1.3,0.4,1.8,0.8l1-1.1c-0.7-0.5-1.4-0.8-2.2-1c-1-0.2-2-0.4-3-0.4c-1.7,0-3,0.3-4.1,0.8
			c-1.1,0.5-1.6,1.3-1.6,2.1c0,0.4,0.1,0.7,0.3,1c0.2,0.3,0.5,0.6,0.8,0.8c0.4,0.2,0.8,0.4,1.2,0.6c0.5,0.2,1,0.3,1.5,0.4
			c0.5,0.1,1,0.2,1.6,0.3l0.6,0.1l0.6,0.1c0.3,0.1,0.5,0.1,0.6,0.1l0.6,0.1c0.2,0,0.4,0.1,0.6,0.2c0.1,0.1,0.3,0.1,0.5,0.2
			c0.1,0.1,0.3,0.2,0.4,0.3c0.1,0.1,0.2,0.2,0.2,0.3c0.1,0.1,0.1,0.3,0.1,0.4c0,0.5-0.4,0.9-1.1,1.2c-0.8,0.4-1.8,0.5-2.7,0.5
			c-1,0-1.9-0.1-2.8-0.4c-0.8-0.2-1.6-0.6-2.3-1.1l-1.1,1.1c0.9,0.6,1.8,1,2.8,1.2c1.1,0.3,2.3,0.5,3.4,0.5c1.7,0,3.1-0.3,4.2-0.9
			s1.7-1.3,1.7-2.2c0-0.3-0.1-0.6-0.2-0.9C51.5,11.3,51.3,11.1,51.1,10.9z"/>
		<path class="st0" d="M64.2,5.3c-2.8-1-5.7-1-8.5,0c-1.1,0.4-2.2,1.1-3,2C52,8,51.6,9,51.6,10c0,0.8,0.2,1.5,0.6,2.2
			c0.4,0.7,1,1.3,1.7,1.7c0.8,0.5,1.7,0.9,2.6,1.2c1.1,0.3,2.2,0.4,3.3,0.4c1.4,0,2.9-0.2,4.3-0.7c1.1-0.4,2.2-1.1,3-2
			c1.5-1.6,1.5-4,0-5.6C66.4,6.3,65.4,5.7,64.2,5.3z M65.3,12.1c-0.6,0.7-1.4,1.2-2.2,1.5c-2,0.7-4.2,0.7-6.3,0
			c-0.9-0.3-1.6-0.8-2.2-1.5c-0.5-0.6-0.8-1.3-0.8-2.1c0-0.6,0.2-1.1,0.5-1.6c0.3-0.5,0.8-1,1.3-1.3c0.6-0.4,1.3-0.7,2-0.9
			C58.3,6,59.1,5.9,60,5.9c1.1,0,2.1,0.2,3.1,0.5c0.9,0.3,1.6,0.8,2.2,1.5C66.4,9.1,66.4,10.9,65.3,12.1z"/>
		<polygon class="st0" points="67.1,4.7 67.1,6 72.2,6 72.2,15.3 74.3,15.3 74.3,6 79.4,6 79.4,4.7 		"/>
	</g>
</g>
</svg>
