<svg xmlns="http://www.w3.org/2000/svg" viewBox="0 0 159.2 39.9"><defs><style>.cls-1{fill:#333;}</style></defs><title>logo-3_1</title><g id="Layer_2" data-name="Layer 2"><g id="Layer_1-2" data-name="Layer 1"><polygon class="cls-1" points="138.7 4.2 146.9 4.2 146.9 39.6 150.9 39.6 150.9 4.2 159.2 4.2 159.2 0.2 138.7 0.2 138.7 4.2"/><polygon class="cls-1" points="4 0.3 0 0.3 0 39.8 23.01 39.8 24.41 35.9 4 35.9 4 0.3"/><path class="cls-1" d="M51.1,39.8,37.4.2H33.2L19.6,39.8h4.2l2.9-8.5H43.8v-.4l3.1,8.9Zm-23-12.5,1.4-4,5.8-17,7.2,21Z"/><polygon class="cls-1" points="53.6 39.8 57.6 39.8 57.6 8.6 73.3 39.8 77.4 39.8 77.4 0.1 73.4 0.1 73.4 31.1 57.8 0.1 53.6 0.1 53.6 39.8"/><path class="cls-1" d="M123,39.8c-10.1,0-18.3-8.9-18.3-19.9S112.9,0,123,0s18.3,8.9,18.3,19.9S133.1,39.8,123,39.8Zm0-35.9c-7.9,0-14.3,7.1-14.3,15.9s6.4,15.9,14.3,15.9,14.3-7.1,14.3-15.9S130.9,3.9,123,3.9Z"/><path class="cls-1" d="M92.4,39.9a11.17,11.17,0,0,1-11-8.8l3.9-.8a7.25,7.25,0,0,0,14.3-1.4c0-4.1-2.1-6.5-7.1-8.1C88.3,19.5,82,17.5,81.9,10.3a10.24,10.24,0,0,1,2.9-7.1A10.5,10.5,0,0,1,102,6.7L98.3,8.1a6.31,6.31,0,0,0-5.9-4A6.6,6.6,0,0,0,87.8,6a5.89,5.89,0,0,0-1.7,4.2c.1,3.7,2.5,5.1,7.8,6.7,6.7,2.1,9.9,6,9.9,11.9A11.47,11.47,0,0,1,92.4,39.9Z"/></g></g></svg>